# xmcd
# 
# Track frame offsets:
#     150
#     11508
#     25638
#     40201
#     58575
#     77350
#     93218
#     104630
#     117920
#     130886
#     144048
#     163612
#     173084
#     190938
# 
# Disc length: 2776
# 
# Revision: 1
# Processed by: cddbd v1.5.2PL0 Copyright (c) Steve Scherf et al.
# Submitted via: fre:ac v1.1beta1pre5
# 
DISCID=a50ad60e
DTITLE=Various Artist - Les plus belles chansons francaises
DYEAR=2010
DGENRE=World
TTITLE0=Georges Moustaki - Le meteque
TTITLE1=Edith Piaf - L' accordeoniste
TTITLE2=Juliette Greco - Sous le ciel de Paris
TTITLE3=Claude Francois - Comme d' habitude
TTITLE4=Serge Lama - Je suis malade
TTITLE5=Λεάνδρου Βίκυ - Apres toi
TTITLE6=Brigitte Bardot - Tu veux ou tu veux pas?
TTITLE7=Herve Vilard - Mourrir ou vivre
TTITLE8=Dalida - Je reviens te chercher
TTITLE9=Enrico Macias - Il est comme le soleil
TTITLE10=Daniel Balavoine - L' aziza
TTITLE11=France Gall - Laisse tomber les filles
TTITLE12=Michel Sardou - Je vais t' aimer
TTITLE13=Various Artist - Pour un flirt
EXTD=
EXTT0=
EXTT1=
EXTT2=
EXTT3=
EXTT4=
EXTT5=
EXTT6=
EXTT7=
EXTT8=
EXTT9=
EXTT10=
EXTT11=
EXTT12=
EXTT13=
PLAYORDER=
